<svg width="725" height="29" viewBox="0 0 725 29" fill="none" xmlns="http://www.w3.org/2000/svg">
<g clip-path="url(#clip0_62_2530)">
<path d="M115.844 6.79679H115.298V5.43259L114.752 6.33297H114.479L114.206 5.43259V6.79679H113.66V4.47765H114.206L114.752 5.73272L115.298 4.47765H115.844V6.79679ZM113.387 4.88691H112.84V6.79679H112.294V4.88691H111.748V4.47765H113.387V4.88691ZM110.382 13.4814H108.744V8.24285L106.832 11.6534H105.739L104.101 8.24285V13.4814H102.189V4.47765H104.101L106.286 9.33421L108.744 4.47765H110.382V13.4814V13.4814ZM99.7311 13.4814H97.8194L97.2731 11.8989H94.269L93.7227 13.4814H91.811L95.0883 4.47765H96.4538L99.7311 13.4814ZM97 10.3983L95.9076 7.1242L94.8152 10.3983H97ZM89.0799 13.4814H83.0715V4.47765H89.0799V6.03284H84.9833V8.161H88.5337V9.71619H84.9833V11.9262H89.0799V13.4814V13.4814ZM80.3405 6.03284H78.1556V13.4814H76.2438V6.03284H73.7859V4.47765H80.3405V6.03284V6.03284ZM71.601 10.8348C71.601 12.6901 69.9624 13.536 68.3237 13.5632C66.6851 13.5632 65.5926 13.1813 65.0464 12.3627L66.1388 11.2441C66.6851 11.7352 67.2313 12.008 68.3237 12.008C69.4161 12.008 69.9624 11.6261 69.9624 10.8894C69.9624 10.2073 69.4161 9.90718 68.8699 9.79804L67.7775 9.66162C66.1388 9.44335 65.3195 8.59754 65.3195 7.1242C65.3195 6.30568 65.5926 5.65086 66.1388 5.13247C66.6851 4.64135 67.5044 4.3958 68.3237 4.3958C69.6892 4.3958 70.5086 4.75049 71.3279 5.43259L70.2355 6.55124C69.6892 6.14198 69.143 5.9237 68.3237 5.9237C67.5044 5.97827 66.9582 6.2784 66.9582 7.06963C66.9582 7.69717 67.5044 7.99729 68.0506 8.05186L69.143 8.21556C70.5086 8.37927 71.601 9.30693 71.601 10.8348V10.8348ZM57.6725 9.19779C57.6725 11.6534 55.4876 13.6451 53.0297 13.6451C50.5717 13.6451 48.6599 11.6534 48.6599 9.19779C48.6599 6.76951 50.5717 4.77777 53.0297 4.77777C55.4876 4.77777 57.6725 6.76951 57.6725 9.19779ZM53.0297 0.958008C48.6599 0.958008 44.8364 4.61407 44.8364 9.17051L39.6474 16.5645C39.3743 16.5369 39.3743 16.5099 39.1012 16.5099C38.0087 16.5099 36.9163 16.8373 35.8239 17.383L12.5005 7.99729C11.8723 5.21432 9.38703 3.14073 6.43747 3.14073C3.05093 3.14073 0.259766 5.9237 0.259766 9.33421C0.259766 12.7174 3.05093 15.5004 6.43747 15.5004C7.6121 15.5004 8.67695 15.2003 9.60579 14.6273L33.0931 24.013C33.6393 26.8779 36.0973 28.7877 39.1014 28.7877C42.1056 28.7877 44.8367 26.3322 45.1098 23.3036L53.0299 17.5194C57.6728 17.5194 61.4963 13.8088 61.4963 9.22507C61.496 4.66864 57.6725 0.958008 53.0297 0.958008ZM53.0297 3.68641C56.307 3.68641 58.7649 6.16926 58.7649 9.22507C58.7649 12.3082 56.307 14.791 53.0297 14.791C50.0255 14.791 47.5675 12.3082 47.5675 9.22507C47.5675 6.16926 50.0255 3.68641 53.0297 3.68641V3.68641ZM6.43747 4.77777C8.18536 4.77777 9.71476 5.73272 10.4797 7.17877L8.21267 6.2784C6.38284 5.62358 4.36185 6.52395 3.62445 8.3247C2.91437 10.1527 3.7337 12.199 5.5089 12.9903L7.42065 13.7542C7.11996 13.8361 6.79251 13.8634 6.43719 13.8634C3.92487 13.8634 1.9036 11.8443 1.9036 9.33421C1.90387 6.79679 3.92487 4.77777 6.43747 4.77777ZM39.1012 18.147C41.5591 18.147 43.4709 20.1933 43.4709 22.7034C43.4709 25.2408 41.5591 27.1507 39.1012 27.1507C37.1894 27.1507 35.8239 26.3322 35.0045 24.8315C35.8239 25.2408 36.3701 25.5137 37.1894 25.7865C39.1012 26.605 41.0129 25.5136 41.8322 23.7675C42.3785 22.0761 41.8322 19.757 39.9205 19.0203L38.0087 18.2564C38.2818 18.2015 38.8281 18.147 39.1012 18.147Z" fill="white"/>
</g>
<g clip-path="url(#clip1_62_2530)">
<path d="M283.142 13.5471V11.254H280.294V7.68899L280.198 7.71851L277.523 8.53688L277.471 8.5529V11.2541H273.249V9.74929C273.249 9.04861 273.406 8.51241 273.714 8.15481C274.021 7.8015 274.46 7.62189 275.019 7.62189C275.421 7.62189 275.838 7.71662 276.257 7.90342L276.362 7.95034V5.53535L276.312 5.51719C275.921 5.37667 275.39 5.30591 274.731 5.30591C273.9 5.30591 273.145 5.48666 272.487 5.84489C271.829 6.20362 271.311 6.71573 270.948 7.36684C270.586 8.0172 270.403 8.76834 270.403 9.59957V11.254H268.42V13.5471H270.403V23.2077H273.249V13.5471H277.471V19.6863C277.471 22.2147 278.663 23.496 281.015 23.496C281.402 23.496 281.809 23.4507 282.224 23.362C282.647 23.2709 282.935 23.18 283.104 23.0829L283.142 23.0607V20.7463L283.026 20.8229C282.871 20.9258 282.679 21.0099 282.454 21.0725C282.227 21.1362 282.038 21.1681 281.891 21.1681C281.34 21.1681 280.933 21.0197 280.68 20.7266C280.424 20.431 280.294 19.9139 280.294 19.1907V13.5471H283.142ZM262.063 21.1685C261.03 21.1685 260.215 20.8259 259.641 20.1511C259.064 19.4728 258.771 18.5059 258.771 17.2773C258.771 16.0098 259.064 15.0177 259.641 14.3275C260.216 13.6418 261.023 13.2938 262.04 13.2938C263.027 13.2938 263.812 13.6262 264.375 14.2822C264.941 14.9417 265.228 15.9258 265.228 17.2081C265.228 18.5061 264.958 19.5032 264.426 20.1703C263.897 20.8322 263.102 21.1685 262.063 21.1685V21.1685ZM262.189 10.966C260.218 10.966 258.653 11.5436 257.536 12.6827C256.421 13.822 255.855 15.3985 255.855 17.369C255.855 19.2406 256.407 20.7461 257.496 21.8428C258.585 22.9399 260.068 23.4957 261.901 23.4957C263.812 23.4957 265.346 22.91 266.462 21.7551C267.578 20.6015 268.143 19.0398 268.143 17.1154C268.143 15.2145 267.613 13.6978 266.566 12.6084C265.519 11.5185 264.046 10.966 262.189 10.966V10.966ZM251.266 10.966C249.925 10.966 248.816 11.309 247.969 11.9852C247.116 12.6654 246.684 13.5576 246.684 14.6372C246.684 15.1984 246.777 15.6968 246.961 16.1197C247.146 16.5438 247.432 16.9173 247.811 17.2308C248.188 17.5417 248.77 17.8674 249.542 18.1988C250.19 18.4655 250.674 18.6912 250.981 18.869C251.281 19.0434 251.494 19.2186 251.614 19.3892C251.731 19.5562 251.79 19.7848 251.79 20.0668C251.79 20.8699 251.189 21.2607 249.951 21.2607C249.492 21.2607 248.969 21.1648 248.395 20.9759C247.826 20.7898 247.288 20.5173 246.802 20.1679L246.684 20.0831V22.8236L246.727 22.8438C247.13 23.0298 247.638 23.1865 248.236 23.3099C248.833 23.4334 249.376 23.4962 249.848 23.4962C251.303 23.4962 252.474 23.1516 253.329 22.4713C254.19 21.7864 254.626 20.8732 254.626 19.7563C254.626 18.9505 254.391 18.2595 253.928 17.7023C253.469 17.1496 252.671 16.6421 251.559 16.1936C250.673 15.8379 250.105 15.5426 249.871 15.3159C249.645 15.0969 249.53 14.7873 249.53 14.3951C249.53 14.0475 249.672 13.769 249.962 13.5435C250.255 13.3168 250.663 13.2015 251.174 13.2015C251.648 13.2015 252.133 13.2764 252.616 13.4233C253.098 13.5701 253.522 13.7667 253.875 14.0073L253.991 14.0867V11.4871L253.947 11.4679C253.621 11.328 253.19 11.2083 252.668 11.1112C252.148 11.0147 251.676 10.966 251.266 10.966V10.966ZM239.263 21.1685C238.23 21.1685 237.415 20.8259 236.841 20.1511C236.264 19.4728 235.972 18.5061 235.972 17.2773C235.972 16.0098 236.264 15.0177 236.842 14.3275C237.416 13.6418 238.223 13.2938 239.24 13.2938C240.227 13.2938 241.013 13.6262 241.576 14.2822C242.141 14.9417 242.428 15.9258 242.428 17.2081C242.428 18.5061 242.158 19.5032 241.626 20.1703C241.097 20.8322 240.303 21.1685 239.263 21.1685V21.1685ZM239.39 10.966C237.418 10.966 235.853 11.5436 234.737 12.6827C233.621 13.822 233.055 15.3985 233.055 17.369C233.055 19.2414 233.608 20.7461 234.697 21.8428C235.786 22.9399 237.268 23.4957 239.102 23.4957C241.012 23.4957 242.547 22.91 243.663 21.7551C244.778 20.6015 245.344 19.0398 245.344 17.1154C245.344 15.2145 244.813 13.6978 243.766 12.6084C242.719 11.5185 241.246 10.966 239.39 10.966V10.966ZM228.735 13.3241V11.254H225.923V23.2075H228.735V17.0928C228.735 16.0531 228.97 15.1989 229.436 14.5537C229.895 13.9162 230.507 13.5932 231.254 13.5932C231.507 13.5932 231.792 13.6349 232.1 13.7175C232.404 13.7996 232.625 13.8888 232.755 13.9827L232.873 14.0683V11.2335L232.828 11.214C232.566 11.1027 232.195 11.0466 231.727 11.0466C231.02 11.0466 230.388 11.2736 229.846 11.7207C229.371 12.1136 229.027 12.6523 228.764 13.3241H228.735ZM220.887 10.966C219.597 10.966 218.447 11.2426 217.468 11.7879C216.487 12.3344 215.729 13.1147 215.213 14.1069C214.699 15.0967 214.438 16.2529 214.438 17.5422C214.438 18.6716 214.691 19.7081 215.191 20.6216C215.691 21.5366 216.399 22.2524 217.295 22.7488C218.19 23.2447 219.224 23.4961 220.369 23.4961C221.705 23.4961 222.846 23.2289 223.761 22.7021L223.798 22.6809V20.1048L223.68 20.1911C223.265 20.4929 222.802 20.7338 222.304 20.9074C221.807 21.0808 221.354 21.1685 220.957 21.1685C219.853 21.1685 218.968 20.8233 218.325 20.1426C217.681 19.4611 217.354 18.5041 217.354 17.2999C217.354 16.0881 217.695 15.1065 218.366 14.3823C219.035 13.6601 219.923 13.2938 221.003 13.2938C221.927 13.2938 222.828 13.6068 223.68 14.2248L223.798 14.3105V11.5962L223.76 11.5747C223.439 11.3952 223.002 11.247 222.459 11.1346C221.918 11.0225 221.39 10.966 220.887 10.966V10.966ZM212.502 11.2541H209.69V23.2075H212.502V11.2541V11.2541ZM211.125 6.16187C210.662 6.16187 210.258 6.31941 209.926 6.6316C209.593 6.94466 209.425 7.33884 209.425 7.80403C209.425 8.2619 209.591 8.64889 209.921 8.95363C210.249 9.25749 210.654 9.4115 211.125 9.4115C211.595 9.4115 212.002 9.25749 212.333 8.95413C212.667 8.64888 212.836 8.26203 212.836 7.80403C212.836 7.35511 212.672 6.96497 212.347 6.64421C212.023 6.32408 211.611 6.16187 211.125 6.16187ZM204.109 10.3722V23.2075H206.978V6.52779H203.007L197.959 18.917L193.06 6.52779H188.926V23.2074H191.623V10.3709H191.716L196.889 23.2075H198.924L204.016 10.3722H204.109V10.3722Z" fill="white"/>
<path d="M165.976 14.1817H152.749V0.954102H165.976V14.1817Z" fill="#F1511B"/>
<path d="M180.579 14.1817H167.352V0.954102H180.579V14.1817Z" fill="#80CC28"/>
<path d="M165.976 28.7917H152.749V15.5642H165.976V28.7917Z" fill="#00ADEF"/>
<path d="M180.579 28.7917H167.352V15.5642H180.579V28.7917Z" fill="#FBBC09"/>
</g>
<g clip-path="url(#clip2_62_2530)">
<path d="M409.861 23.3296L404.275 15.8244L398.773 23.3296H396.523L403.188 14.2409L397.101 5.98438H399.351L404.271 12.7383L409.276 5.98438H411.526L405.442 14.2409L412.112 23.3296H409.861ZM379.424 14.9074C379.089 14.5723 378.673 14.3219 378.257 14.1562C379.509 13.4896 380.341 12.1565 380.341 10.654C380.341 9.57127 379.925 5.98438 374.755 5.98438H367.75V13.4896H365.416C365.081 13.9057 364.414 14.8227 364.164 15.2425H367.75V23.3296H374.755C378.592 23.3296 380.927 21.411 380.927 18.2439C380.923 16.9071 380.426 15.7397 379.424 14.9074V14.9074ZM369.669 7.81833H374.755C376.173 7.81833 378.423 8.15345 378.423 10.5693C378.423 12.4032 377.09 13.4896 374.755 13.4896H369.669V7.81833ZM374.755 21.4957H369.669V15.1578H374.755C376.673 15.1578 379.008 15.6587 379.008 18.1592C379.008 21.0795 376.338 21.4957 374.755 21.4957Z" fill="white"/>
<path d="M390.015 5.56885C385.18 5.56885 381.758 9.32146 381.758 14.6576C381.758 19.9937 385.176 23.6617 390.015 23.6617C394.854 23.6617 398.271 19.909 398.271 14.6576C398.268 9.32146 394.931 5.56885 390.015 5.56885V5.56885ZM390.015 21.8277C386.347 21.8277 383.762 18.8263 383.762 14.6576C383.762 10.4042 386.347 7.4875 390.015 7.4875C393.683 7.4875 396.268 10.4889 396.268 14.6576C396.349 18.911 393.764 21.8277 390.015 21.8277ZM366.748 23.3302L360.16 14.2415L366.163 5.98499H363.912L358.992 12.7389L354.072 5.98499H351.738L357.825 14.2415L351.156 23.3302H353.491L358.992 15.825L364.494 23.3302H366.748V23.3302Z" fill="white"/>
<path d="M348.147 14.8711C348.147 22.542 341.809 28.7951 334.053 28.7951C326.298 28.7951 320.044 22.5457 320.044 14.8711C320.044 7.19646 326.382 0.947021 334.138 0.947021C341.894 0.947021 348.147 7.20014 348.147 14.8711V14.8711Z" fill="#666666"/>
<path d="M348.147 14.8721C348.147 22.543 341.809 28.7961 334.053 28.7961C326.298 28.7961 320.044 22.543 320.044 14.8721C320.044 7.20114 326.382 0.944336 334.138 0.944336C341.894 0.944336 348.147 7.20114 348.147 14.8721V14.8721Z" fill="url(#paint0_radial_62_2530)"/>
<path d="M348.147 14.8721C348.147 22.543 341.809 28.7961 334.053 28.7961C326.298 28.7961 320.044 22.543 320.044 14.8721C320.044 7.20114 326.382 0.944336 334.138 0.944336C341.894 0.944336 348.147 7.20114 348.147 14.8721V14.8721Z" fill="url(#paint1_radial_62_2530)"/>
<path d="M348.147 14.8721C348.147 22.543 341.809 28.7961 334.053 28.7961C326.298 28.7961 320.044 22.543 320.044 14.8721C320.044 7.20114 326.382 0.944336 334.138 0.944336C341.894 0.944336 348.147 7.20114 348.147 14.8721V14.8721Z" fill="url(#paint2_radial_62_2530)"/>
<path d="M330.565 8.80957C329.052 10.7282 322.5 18.3255 323.09 23.4996C323.509 24.0005 323.929 24.5013 324.434 24.9174C324.349 20.9954 329.055 16.7383 332.668 13.4828L330.565 8.80957V8.80957Z" fill="#00A54D"/>
<path d="M330.565 8.80957C329.052 10.7282 322.5 18.3255 323.09 23.4996C323.509 24.0005 323.929 24.5013 324.434 24.9174C324.349 20.9954 329.055 16.7383 332.668 13.4828L330.565 8.80957V8.80957Z" fill="url(#paint3_linear_62_2530)"/>
<path d="M326.754 3.07927C325.915 3.58011 325.156 4.16197 324.486 4.74751C326.754 5.16365 328.938 7.167 330.198 8.75422C331.291 10.4225 331.877 11.925 332.636 13.5122C333.14 13.0961 333.645 12.6799 334.234 12.1754V5.32937C332.466 4.33137 329.778 2.99457 326.754 3.07927V3.07927Z" fill="#02A74D"/>
<path d="M326.754 3.07628C325.915 3.57712 325.16 4.16266 324.486 4.74451C326.754 5.16065 328.938 7.16401 330.198 8.75122C331.291 10.4195 331.877 11.922 332.636 13.5092C333.14 13.0931 333.645 12.6732 334.23 12.1724V5.33005C332.466 4.32837 329.778 2.99526 326.754 3.07628Z" fill="url(#paint4_linear_62_2530)"/>
<path d="M337.689 8.81372C339.195 10.7361 345.728 18.337 345.139 23.5148C344.719 24.0157 344.303 24.5165 343.798 24.9363C343.883 21.0106 339.195 16.7498 335.593 13.4944L337.689 8.81372V8.81372Z" fill="#00A54D"/>
<path d="M337.689 8.81372C339.195 10.7361 345.728 18.337 345.143 23.5148C344.723 24.0157 344.307 24.5165 343.802 24.9363C343.887 21.0106 339.195 16.7498 335.597 13.4944L337.689 8.81372Z" fill="url(#paint5_linear_62_2530)"/>
<path d="M341.485 3.07531C342.321 3.57614 343.076 4.16168 343.746 4.74722C341.485 5.16336 339.308 7.1704 338.052 8.75762C336.966 10.4295 336.377 11.9321 335.626 13.5193C335.121 13.0994 334.62 12.6833 334.035 12.1825V5.33276C335.71 4.3274 338.472 2.9906 341.485 3.07531V3.07531Z" fill="#02A74D"/>
<path d="M341.488 3.07531C342.324 3.57614 343.079 4.16168 343.749 4.74722C341.488 5.16336 339.308 7.1704 338.052 8.75762C336.962 10.4295 336.377 11.9321 335.626 13.5193C335.125 13.1031 334.62 12.6833 334.035 12.1825V5.33276C335.71 4.3274 338.472 2.9906 341.488 3.07531V3.07531Z" fill="url(#paint6_linear_62_2530)"/>
</g>
<g clip-path="url(#clip3_62_2530)">
<path fill-rule="evenodd" clip-rule="evenodd" d="M468.859 6.80202L468.835 28.6904L462.932 26.7831V1.05542L470.466 3.03453C475.289 4.32234 478.24 6.82568 478.192 11.2129C478.144 16.3157 475.769 18.366 471.138 17.0308V6.96858C471.138 5.75254 468.859 5.68134 468.859 6.80202V6.80202Z" fill="#DE0029"/>
<path fill-rule="evenodd" clip-rule="evenodd" d="M460.22 22.5384L457.437 23.4685C455.637 24.0885 454.101 22.6341 455.757 22.0377L457.101 21.5612L452.038 19.9633C450.478 20.4881 449.014 21.6087 449.11 23.1824C449.206 24.7798 452.877 25.1616 455.709 25.6146C458.348 26.0436 460.748 25.8052 462.931 25.0422V23.3968L460.22 22.5384ZM468.882 28.6903L474.041 26.9018L468.834 25.2569V28.5709L468.882 28.6903Z" fill="#F3C202"/>
<path fill-rule="evenodd" clip-rule="evenodd" d="M482.607 23.8979L482.703 23.8739C484.958 23.0873 485.918 21.99 485.678 20.9651C485.294 19.2484 482.535 18.3183 478.288 18.0083C475.241 17.7939 472.241 18.4613 469.314 19.4626L468.834 19.6297L474.089 21.2511L477.16 20.2256C480.375 19.6297 481.671 20.6787 478.576 21.6564L477.04 22.1807L482.607 23.8979ZM462.932 16.3157L460.604 17.1022L462.932 17.8176V16.3157Z" fill="#326DB3"/>
<path fill-rule="evenodd" clip-rule="evenodd" d="M474.04 26.9019L482.606 23.8979L477.04 22.1807L468.834 24.9704V25.2569L474.04 26.9019ZM462.931 21.6323L460.22 22.5383L462.931 23.3967V21.6323ZM468.834 23.0395V19.6297L474.089 21.2511L468.834 23.0395ZM457.1 21.5612L462.931 19.4868V17.8177L460.604 17.1023L452.158 19.9397C452.133 19.9397 452.086 19.9632 452.038 19.9632L457.1 21.5612Z" fill="#00AA9E"/>
</g>
<g clip-path="url(#clip4_62_2530)">
<path d="M502.629 3.76602V21.8374H505.466V5.49804H508.092C508.092 5.49804 510 5.49804 510.653 6.34646C511.208 7.06718 511.31 8.3746 511.31 9.25741C511.31 10.2023 511.25 11.6623 510.931 12.1968C510.447 13.0136 509.653 13.1773 508.926 13.1773H507.193V14.7812H509.686C509.686 14.7812 511.935 14.8745 512.902 13.8968C514.088 12.6981 514.389 11.0867 514.389 8.92927C514.389 6.96913 513.674 4.9916 512.212 4.3199C511.002 3.76642 508.82 3.76642 508.82 3.76642L502.629 3.76602ZM516.619 21.8378H519.456V3.76642H516.619V21.8378ZM534.549 7.98123L539.739 21.5081L536.759 28.7651H539.114L547.695 7.98123H545.066L541.328 18.1112L537.85 7.98123H534.549ZM549.831 21.7303V20.0224C549.831 20.0224 552.831 20.1394 553.456 20.1394C554.841 20.1394 555.532 19.846 556.053 19.291C556.36 18.9581 556.637 17.4838 556.637 16.9584C556.637 16.435 556.536 15.3031 556.33 14.8393C556.117 14.3851 555.634 13.9609 554.909 13.8996C554.392 13.8553 553.593 13.7513 552.659 13.7086C551.349 13.647 550.483 12.9674 550.066 12.4787C549.652 11.9897 549.098 11.2531 549.098 8.99965C549.098 6.74339 549.685 5.47867 550.274 4.89197C550.862 4.30211 551.723 4.04356 552.384 3.92693C553.145 3.79765 554.389 3.78974 554.389 3.78974L558.36 3.90479V5.61269C558.36 5.61269 555.464 5.49765 554.841 5.49765C553.456 5.49765 553.041 5.79258 552.522 6.34607C552.216 6.67539 551.977 7.58706 551.977 8.10932C551.977 8.63395 552.039 9.69388 552.246 10.1525C552.452 10.6071 552.938 11.0325 553.664 11.0974C554.18 11.1369 554.98 11.2409 555.913 11.2832C557.229 11.3449 558.093 12.0229 558.506 12.5135C558.923 13.0037 559.478 14.0368 559.478 16.2883C559.478 18.5449 558.886 20.1568 558.301 20.7451C557.711 21.3314 556.852 21.5935 556.19 21.7069C555.428 21.8374 554.184 21.8473 554.184 21.8473L549.831 21.7303ZM565.311 5.49725H562.475V18.7644C562.475 18.7644 562.543 19.9753 562.613 20.4011C562.683 20.8269 563.306 21.8378 564.931 21.8378L567.87 21.7809V20.0793C567.87 20.0793 567.074 20.1362 566.594 20.1362C566.107 20.1362 565.517 20.1046 565.417 19.2862C565.31 18.4694 565.31 17.4933 565.31 17.4933V9.68123H568.514V7.98123H565.31V5.49765L565.311 5.49725ZM592.688 21.8378H595.524V7.98202H592.688V21.8378ZM592.688 6.28123H595.524V3.76562H592.688V6.28123ZM604.487 7.86302C606.417 7.86302 607.914 8.29197 608.718 8.93837C609.53 9.58674 610.527 10.9539 610.527 14.9101C610.527 18.8668 609.53 20.2323 608.718 20.8822C607.914 21.5286 606.417 21.9608 604.487 21.9608C602.552 21.9608 601.061 21.5286 600.251 20.8822C599.441 20.2323 598.448 18.8668 598.448 14.9101C598.448 10.9539 599.441 9.58634 600.251 8.93837C601.061 8.29197 602.552 7.86302 604.487 7.86302V7.86302ZM602.543 10.5198C602.152 10.9981 601.677 12.0023 601.677 14.9101C601.677 17.8167 602.152 18.8225 602.542 19.2985C602.931 19.7721 603.648 20.0919 604.576 20.0919C605.505 20.0919 606.218 19.7717 606.612 19.2989C607 18.8225 607.476 17.8163 607.476 14.9105C607.476 12.0023 607 10.9977 606.612 10.5202C606.218 10.0457 605.505 9.72827 604.576 9.72827C603.648 9.72827 602.931 10.0453 602.542 10.5202L602.543 10.5198ZM616.403 9.92713L619.184 9.81051C619.912 9.81051 620.769 10.0058 621.184 10.5296C621.571 11.023 621.815 11.6113 621.815 12.559V21.822H624.655V12.3257C624.655 10.5296 624.099 9.48553 623.265 8.82965C622.075 7.89148 619.944 7.98123 619.944 7.98123L613.59 8.09469V21.822H616.403V9.92713ZM587.039 5.49725H584.202V18.7644C584.202 18.7644 584.269 19.9753 584.338 20.4011C584.409 20.8269 585.027 21.8378 586.659 21.8378L589.597 21.7809V20.0793C589.597 20.0793 588.8 20.1362 588.318 20.1362C587.836 20.1362 587.244 20.1046 587.141 19.2862C587.04 18.4694 587.04 17.4933 587.04 17.4933V9.68123H590.235V7.98123H587.04L587.039 5.49725ZM530.221 12.559C530.221 11.6113 529.978 11.023 529.588 10.5296C529.173 10.0058 528.32 9.81011 527.59 9.81011L523.849 9.92713V8.09469L528.351 7.98123C528.351 7.98123 530.482 7.89109 531.673 8.82965C532.504 9.48592 533.056 10.5296 533.056 12.3257V21.6895L527.62 21.8062C527.62 21.8062 525.159 21.8149 523.919 21.3159C522.71 20.8269 522.051 19.4851 522.051 17.6226C522.051 15.8249 522.604 14.7808 523.435 14.1249C524.626 13.1852 526.756 13.2781 526.756 13.2781H528.492V14.8741H527.518C526.789 14.8741 526.039 15.0082 525.622 15.5316C525.233 16.0202 525.025 16.4448 525.025 17.3925C525.025 18.6367 525.268 19.1913 525.856 19.6144C526.377 19.9911 527.307 20.073 528.346 20.073L530.221 19.9595V12.559ZM578.054 12.559C578.054 11.6113 577.816 11.023 577.426 10.5296C577.006 10.0058 576.153 9.81011 575.428 9.81011L571.689 9.92713V8.09469L576.188 7.98123C576.188 7.98123 578.317 7.89109 579.507 8.82965C580.338 9.48592 580.893 10.5296 580.893 12.3257V21.6895L575.456 21.8062C575.456 21.8062 572.992 21.8149 571.755 21.3159C570.545 20.8269 569.884 19.4851 569.884 17.6226C569.884 15.8249 570.442 14.7808 571.268 14.1249C572.458 13.1852 574.592 13.2781 574.592 13.2781H576.327V14.8741H575.352C574.627 14.8741 573.872 15.0082 573.46 15.5316C573.07 16.0202 572.861 16.4448 572.861 17.3925C572.861 18.6367 573.105 19.1913 573.692 19.6144C574.21 19.9911 575.146 20.073 576.184 20.073L578.054 19.9595L578.054 12.559ZM629.796 21.9513C630.16 21.9521 630.521 21.8815 630.857 21.7434C631.194 21.6054 631.499 21.4026 631.757 21.1468C632.014 20.891 632.218 20.5872 632.357 20.2528C632.496 19.9184 632.568 19.5599 632.567 19.1981C632.568 18.8361 632.497 18.4775 632.358 18.143C632.219 17.8085 632.014 17.5046 631.757 17.249C631.499 16.9929 631.194 16.79 630.857 16.6519C630.521 16.5138 630.16 16.4433 629.796 16.4445C628.276 16.4445 627.028 17.6795 627.028 19.1981C627.028 19.9326 627.313 20.6253 627.841 21.1471C628.098 21.4024 628.403 21.6048 628.738 21.7428C629.074 21.8808 629.433 21.9516 629.796 21.9513V21.9513ZM627.492 19.1981C627.492 18.5861 627.735 18.0104 628.168 17.5783C628.381 17.3649 628.635 17.1956 628.915 17.0801C629.194 16.9645 629.494 16.9051 629.796 16.905C630.412 16.905 630.992 17.1462 631.427 17.5783C631.641 17.7907 631.811 18.0431 631.927 18.3211C632.043 18.5991 632.103 18.8971 632.102 19.1981C632.102 20.4612 631.07 21.4911 629.796 21.4911C629.494 21.491 629.194 21.4315 628.915 21.3162C628.636 21.2009 628.382 21.0319 628.168 20.819C627.954 20.6063 627.784 20.3537 627.668 20.0755C627.552 19.7974 627.492 19.4992 627.492 19.1981" fill="white"/>
<path d="M631.165 20.4771C631.124 20.4613 631.092 20.4138 631.074 20.3427C631.057 20.2666 631.048 20.1889 631.048 20.111L631.035 19.7152C631.029 19.5294 630.989 19.3966 630.922 19.308C630.879 19.2487 630.815 19.2013 630.74 19.157C630.832 19.0969 630.914 19.0246 630.973 18.9333C631.051 18.8099 631.092 18.6541 631.092 18.4648C631.092 18.1022 630.938 17.8464 630.638 17.7124C630.479 17.6412 630.288 17.6096 630.053 17.6096H628.621V20.6756H629.154V19.4183H629.996C630.148 19.4183 630.262 19.4342 630.327 19.463C630.437 19.5164 630.495 19.6251 630.502 19.7912L630.526 20.2814C630.532 20.4012 630.538 20.4767 630.548 20.521C630.562 20.5684 630.57 20.606 630.588 20.6376L630.609 20.6756H631.204V20.4957L631.164 20.4767L631.165 20.4771ZM630.548 18.5027C630.548 18.6743 630.503 18.7882 630.418 18.851C630.32 18.9159 630.183 18.9518 630.012 18.9518H629.154V18.0852H630.064C630.186 18.0852 630.288 18.1022 630.361 18.137C630.488 18.2003 630.548 18.3228 630.548 18.5027" fill="white"/>
</g>
<g clip-path="url(#clip5_62_2530)">
<path d="M670.539 2.47846L671.257 1.7698C672.357 0.695446 674.152 0.76402 675.159 1.91846L685.095 13.3475C685.964 14.3418 685.952 15.8161 685.072 16.7991L675.171 27.8737C674.152 29.0053 672.38 29.0623 671.292 27.9881L670.574 27.2794C669.601 26.3194 669.531 24.7878 670.411 23.7364L676.34 16.7189C677.151 15.7589 677.163 14.3759 676.375 13.393L670.354 5.96418C669.497 4.93569 669.578 3.42707 670.539 2.47856V2.47846Z" fill="#92D13D"/>
<path fill-rule="evenodd" clip-rule="evenodd" d="M690.189 23.4052H687.885V10.1817H690.189V11.5647C690.513 10.6389 691.683 9.97601 693.281 9.97601C694.648 9.97601 695.794 10.456 696.72 11.4161C697.658 12.3647 698.122 13.5419 698.122 14.9591C698.122 16.3763 697.658 17.5534 696.72 18.525C695.794 19.4736 694.648 19.9422 693.281 19.9422C691.683 19.9422 690.514 19.2793 690.189 18.3536V23.4052ZM690.015 14.9706C690.015 14.1362 690.305 13.4276 690.861 12.879C691.44 12.3304 692.158 12.0446 692.98 12.0446C693.802 12.0446 694.485 12.3304 695.018 12.879C695.574 13.439 695.84 14.1362 695.84 14.9706C695.84 15.8049 695.574 16.5134 695.018 17.062C694.474 17.6106 693.814 17.8964 692.98 17.8964C692.146 17.8964 691.44 17.6107 690.861 17.0621C690.305 16.502 690.015 15.8049 690.015 14.9706Z" fill="white"/>
<path d="M698.921 6.52441H701.225V16.6163C701.225 17.5421 701.538 17.942 702.383 17.942C702.649 17.942 702.881 17.9192 703.078 17.8621V19.8964C702.812 19.9764 702.441 20.0108 701.978 20.0108C699.94 20.0108 698.921 18.9822 698.921 16.9134L698.921 6.52441Z" fill="white"/>
<path fill-rule="evenodd" clip-rule="evenodd" d="M710.883 11.5646V10.1817H713.187V16.8563C713.187 17.6677 713.384 17.9764 713.894 17.9764C713.982 17.9764 714.084 17.9672 714.192 17.9575C714.253 17.9519 714.317 17.9462 714.38 17.942V19.7822C714.125 19.8736 713.743 19.9308 713.245 19.9308C712.689 19.9308 712.249 19.8393 711.902 19.6221C711.474 19.3364 711.207 18.9592 711.115 18.4678C710.443 19.4736 709.331 19.965 707.791 19.965C706.425 19.965 705.278 19.4964 704.329 18.525C703.402 17.5534 702.939 16.3763 702.939 14.9591C702.939 13.5419 703.402 12.3647 704.329 11.4161C705.267 10.4446 706.425 9.97601 707.791 9.97601C709.343 9.97601 710.512 10.6617 710.883 11.5646ZM711.057 14.9591C711.057 15.7934 710.767 16.502 710.188 17.0506C709.632 17.5992 708.926 17.885 708.092 17.885C707.258 17.885 706.587 17.5992 706.031 17.0506C705.487 16.4906 705.22 15.7934 705.22 14.9591C705.22 14.1248 705.498 13.4162 706.031 12.8676C706.598 12.319 707.27 12.0332 708.092 12.0332C708.914 12.0332 709.632 12.319 710.188 12.8676C710.767 13.4275 711.057 14.1248 711.057 14.9591Z" fill="white"/>
<path fill-rule="evenodd" clip-rule="evenodd" d="M676.328 16.742L670.399 23.7595C669.519 24.7996 669.588 26.3424 670.561 27.3025L671.279 28.0111C672.367 29.0855 674.139 29.0283 675.158 27.8968L677.3 25.4967C678.111 23.9195 678.563 22.1365 678.563 20.2508C678.563 17.9193 677.868 15.7591 676.687 13.942C677.127 14.8334 677.011 15.9419 676.328 16.742Z" fill="#49691F"/>
<path d="M715.179 21.6565C715.469 21.748 715.828 21.8052 716.256 21.8052C716.627 21.8052 716.893 21.7251 717.102 21.5994C717.31 21.4737 717.507 21.1765 717.657 20.788L717.912 20.1023L713.859 10.1817H716.175L719.024 17.3935L721.699 10.1817H724.026L719.684 21.3023C719.394 22.0452 719.047 22.6166 718.642 23.0053C718.063 23.531 717.298 23.8053 716.314 23.8053C715.886 23.8053 715.503 23.7482 715.179 23.6567V21.6565Z" fill="white"/>
</g>
<defs>
<radialGradient id="paint0_radial_62_2530" cx="0" cy="0" r="1" gradientUnits="userSpaceOnUse" gradientTransform="translate(333.875 13.3918) rotate(90) scale(20.2645 17.9945)">
<stop stop-color="white"/>
<stop offset="1" stop-color="white" stop-opacity="0"/>
</radialGradient>
<radialGradient id="paint1_radial_62_2530" cx="0" cy="0" r="1" gradientUnits="userSpaceOnUse" gradientTransform="translate(333.875 13.3918) rotate(90) scale(20.2645 17.9945)">
<stop stop-color="white"/>
<stop offset="1" stop-color="white" stop-opacity="0"/>
</radialGradient>
<radialGradient id="paint2_radial_62_2530" cx="0" cy="0" r="1" gradientUnits="userSpaceOnUse" gradientTransform="translate(333.875 13.3918) rotate(90) scale(20.2645 17.9945)">
<stop stop-color="white"/>
<stop offset="1" stop-color="white" stop-opacity="0"/>
</radialGradient>
<linearGradient id="paint3_linear_62_2530" x1="329.049" y1="18.7308" x2="325.753" y2="14.8112" gradientUnits="userSpaceOnUse">
<stop stop-color="#97CA43"/>
<stop offset="1" stop-color="#97CA43" stop-opacity="0"/>
</linearGradient>
<linearGradient id="paint4_linear_62_2530" x1="328.905" y1="9.45356" x2="331.905" y2="2.70585" gradientUnits="userSpaceOnUse">
<stop stop-color="#97CA43"/>
<stop offset="1" stop-color="#97CA43" stop-opacity="0"/>
</linearGradient>
<linearGradient id="paint5_linear_62_2530" x1="341.067" y1="17.2526" x2="337.76" y2="13.3533" gradientUnits="userSpaceOnUse">
<stop stop-color="#97CA43"/>
<stop offset="1" stop-color="#97CA43" stop-opacity="0"/>
</linearGradient>
<linearGradient id="paint6_linear_62_2530" x1="337.185" y1="7.80202" x2="339.769" y2="3.57111" gradientUnits="userSpaceOnUse">
<stop stop-color="#97CA43"/>
<stop offset="1" stop-color="#97CA43" stop-opacity="0"/>
</linearGradient>
<clipPath id="clip0_62_2530">
<rect width="115.585" height="27.8518" fill="white" transform="translate(0.259766 0.947021)"/>
</clipPath>
<clipPath id="clip1_62_2530">
<rect width="130.392" height="27.8518" fill="white" transform="translate(152.749 0.947021)"/>
</clipPath>
<clipPath id="clip2_62_2530">
<rect width="92.066" height="27.8518" fill="white" transform="translate(320.044 0.947021)"/>
</clipPath>
<clipPath id="clip3_62_2530">
<rect width="36.9036" height="27.8518" fill="white" transform="translate(449.014 0.947021)"/>
</clipPath>
<clipPath id="clip4_62_2530">
<rect width="130.207" height="25.0666" fill="white" transform="translate(502.629 3.73218)"/>
</clipPath>
<clipPath id="clip5_62_2530">
<rect width="54.311" height="27.8518" fill="white" transform="translate(669.739 0.947021)"/>
</clipPath>
</defs>
</svg>
